<?xml version="1.0" standalone="no"?>
<!DOCTYPE svg PUBLIC "-//W3C//DTD SVG 20010904//EN"
 "http://www.w3.org/TR/2001/REC-SVG-20010904/DTD/svg10.dtd">
<svg version="1.0" xmlns="http://www.w3.org/2000/svg"
 width="750.000000pt" height="1000.000000pt" viewBox="0 0 750.000000 1000.000000"
 preserveAspectRatio="xMidYMid meet">

<g transform="translate(0.000000,1000.000000) scale(0.100000,-0.100000)"
fill="#000000" stroke="none">
<path d="M5397 9839 c-138 -21 -300 -136 -372 -265 -20 -35 -45 -101 -57 -146
-19 -76 -20 -91 -9 -183 20 -168 98 -295 239 -388 296 -197 685 -63 804 277
31 90 37 201 17 298 -35 165 -192 337 -353 387 -76 23 -192 32 -269 20z"/>
<path d="M3526 8928 c-14 -8 -16 -61 -16 -532 0 -435 2 -526 14 -535 9 -8 57
-11 147 -9 l134 3 5 165 c5 150 7 168 27 196 47 66 39 76 189 -224 l139 -277
85 -5 85 -5 -3 -71 c-2 -51 1 -74 11 -82 8 -7 107 -18 248 -27 129 -8 380 -26
559 -40 179 -13 399 -29 490 -35 91 -6 212 -15 270 -20 58 -6 129 -10 158 -10
47 0 53 3 62 26 6 14 10 63 10 109 0 100 22 89 -200 105 -959 70 -1224 92
-1233 99 -8 8 7 248 16 257 3 3 54 1 113 -5 163 -17 183 -15 189 12 12 54 24
261 15 276 -7 14 -35 20 -151 29 -78 6 -144 14 -146 16 -3 3 -1 53 4 113 l8
108 50 0 c28 0 100 -4 162 -9 l112 -8 6 23 c3 13 7 74 8 134 l2 110 -50 7
c-57 8 -518 38 -582 38 -36 0 -43 -4 -48 -22 -3 -13 -12 -135 -20 -273 -22
-369 -37 -557 -46 -548 -4 5 -62 107 -128 227 -103 189 -118 222 -109 240 6
12 78 110 160 218 81 108 148 204 148 213 0 8 -6 18 -12 20 -7 3 -87 2 -177
-2 l-165 -8 -115 -192 c-64 -106 -122 -198 -128 -205 -10 -10 -13 29 -13 190
0 153 -3 204 -12 207 -29 8 -257 11 -272 3z"/>
<path d="M3236 8674 c-66 -8 -124 -18 -129 -23 -5 -5 0 -90 12 -207 52 -489
81 -773 81 -798 0 -24 -4 -22 -62 37 -61 62 -68 66 -198 113 -12 4 -10 10 11
27 155 130 166 325 25 455 -117 107 -273 125 -585 66 -257 -48 -583 -133 -597
-155 -9 -15 37 -231 52 -248 12 -13 23 -13 84 3 41 11 75 15 79 10 11 -12 49
-203 121 -609 33 -187 64 -356 68 -375 l8 -35 67 -3 c153 -7 556 82 698 153
38 19 70 35 72 35 3 0 7 -16 10 -35 12 -76 72 -125 152 -125 55 0 93 18 128
60 38 44 43 88 19 144 -25 56 -70 86 -129 86 -24 0 -43 5 -43 10 0 6 10 30 22
53 18 34 22 59 23 127 0 47 -4 96 -8 110 l-8 26 137 13 c75 7 142 15 150 18
18 7 18 30 -1 178 -8 66 -19 172 -25 235 -35 375 -62 628 -70 648 -5 12 -18
21 -27 21 -10 -1 -72 -8 -137 -15z m-598 -604 c81 -50 77 -139 -11 -193 -45
-27 -158 -62 -181 -54 -14 5 -57 220 -46 231 11 12 115 34 165 35 24 1 53 -7
73 -19z m121 -526 c61 -36 80 -126 41 -189 -35 -56 -228 -125 -255 -90 -13 15
-61 273 -53 281 3 3 39 11 79 17 81 14 143 8 188 -19z"/>
<path d="M6346 7754 c-122 -44 -180 -175 -137 -306 15 -45 95 -121 145 -138
82 -27 191 6 249 76 37 43 47 76 47 146 0 166 -153 278 -304 222z"/>
<path d="M3197 6895 c-49 -7 -94 -18 -100 -24 -11 -11 16 -288 49 -498 7 -50
17 -130 20 -177 10 -127 4 -123 170 -103 76 9 140 14 143 11 2 -2 -1 -132 -9
-289 -7 -157 -10 -288 -7 -291 3 -4 26 -9 52 -11 25 -3 45 -8 45 -10 0 -3 -20
-28 -45 -55 -88 -97 -143 -261 -131 -386 19 -183 129 -308 348 -392 101 -39
202 -60 288 -60 80 0 72 -11 94 127 14 91 8 113 -30 113 -53 0 -182 33 -249
64 -50 23 -81 45 -104 75 -42 53 -32 68 30 45 119 -43 444 -154 451 -154 14 0
56 75 73 131 40 134 38 271 -6 365 -67 141 -227 234 -411 238 -48 1 -90 5 -93
8 -3 3 -2 63 3 133 8 108 13 130 31 148 13 14 24 18 30 12 6 -6 33 -62 61
-125 28 -63 57 -125 65 -137 17 -25 52 -30 243 -36 141 -5 150 0 110 61 -74
111 -248 414 -248 430 0 11 55 77 130 155 72 74 130 142 130 151 0 21 -21 24
-187 29 -96 3 -148 1 -158 -7 -8 -6 -54 -69 -100 -141 l-86 -130 6 95 c19 336
26 533 17 542 -11 11 -265 30 -287 22 -17 -7 -22 -57 -30 -254 -9 -244 -17
-360 -25 -360 -4 0 -10 33 -14 73 -8 88 -66 573 -72 605 -4 20 -10 22 -57 21
-28 -1 -92 -7 -140 -14z m749 -1537 c33 -15 50 -31 60 -55 14 -32 10 -78 -7
-88 -9 -6 -198 61 -213 76 -14 13 42 68 79 78 16 5 31 10 33 10 1 1 23 -9 48
-21z"/>
<path d="M1355 6570 c-110 -14 -291 -64 -392 -108 -159 -68 -356 -214 -478
-352 -64 -72 -158 -217 -202 -310 -40 -85 -96 -258 -114 -352 -20 -101 -17
-377 5 -478 60 -278 176 -500 360 -688 118 -122 224 -201 355 -266 246 -123
461 -166 727 -146 342 26 632 162 864 406 204 214 316 435 371 729 6 33 11
133 10 223 -1 143 -5 180 -30 292 -118 512 -508 902 -1026 1025 -115 27 -336
39 -450 25z m251 -311 c223 -22 440 -119 611 -273 63 -57 170 -200 212 -284
145 -289 147 -640 5 -927 -55 -112 -121 -200 -219 -294 -131 -124 -259 -196
-440 -247 -92 -26 -114 -28 -265 -28 -139 0 -179 4 -250 23 -266 71 -481 229
-629 463 -54 85 -84 155 -116 263 -36 120 -46 340 -21 461 36 182 102 322 217
470 152 194 416 340 674 374 88 11 101 11 221 -1z"/>
<path d="M1424 5472 c-90 -32 -144 -89 -170 -181 -44 -149 48 -299 204 -332
213 -44 390 187 292 382 -21 40 -83 100 -131 125 -49 25 -135 28 -195 6z m162
-176 c28 -28 34 -42 34 -76 0 -34 -6 -48 -34 -76 -28 -28 -42 -34 -75 -34 -54
0 -85 21 -105 71 -14 34 -14 44 -2 73 20 47 61 76 108 76 32 0 47 -7 74 -34z"/>
<path d="M5825 6570 c-429 -54 -813 -315 -1022 -695 -90 -163 -131 -290 -159
-490 -36 -262 23 -580 152 -814 54 -98 169 -247 256 -333 179 -175 467 -320
713 -359 114 -17 361 -15 467 5 420 79 777 347 968 726 157 313 188 688 84
1015 -63 196 -170 377 -310 524 -193 204 -414 330 -691 394 -123 29 -342 41
-458 27z m391 -330 c91 -21 218 -69 282 -107 24 -13 88 -61 143 -105 217 -174
345 -417 379 -715 25 -228 -75 -548 -230 -731 -141 -167 -333 -292 -535 -348
-91 -26 -115 -28 -265 -29 -149 0 -174 3 -262 27 -113 32 -267 106 -353 171
-388 292 -523 799 -331 1244 106 247 316 448 572 547 81 31 195 59 284 70 66
7 235 -5 316 -24z"/>
<path d="M5902 5473 c-23 -8 -65 -36 -93 -61 -115 -108 -117 -266 -5 -379 143
-143 362 -92 436 103 75 201 -133 410 -338 337z m164 -177 c28 -28 34 -42 34
-76 0 -57 -50 -110 -105 -110 -72 0 -115 41 -114 110 0 67 44 110 112 110 31
0 46 -7 73 -34z"/>
</g>
</svg>
